<?xml version="1.0" encoding="utf-8"?>
<!-- Generator: Adobe Illustrator 16.0.0, SVG Export Plug-In . SVG Version: 6.00 Build 0)  -->
<!DOCTYPE svg PUBLIC "-//W3C//DTD SVG 1.1//EN" "http://www.w3.org/Graphics/SVG/1.1/DTD/svg11.dtd">
<svg version="1.1" id="Capa_1" xmlns="http://www.w3.org/2000/svg" xmlns:xlink="http://www.w3.org/1999/xlink" x="0px" y="0px"
	 width="512px" height="512px" viewBox="0 0 512 512" enable-background="new 0 0 512 512" xml:space="preserve">
<g>
	<g>
		<rect fill="#FFFFFF" width="512" height="512"/>
		<g>
			<path fill="#003A78" d="M120.498,77.761c23.45,0.02,42.791,19.388,42.74,42.955c-0.056,24.677-20.535,43.276-43.029,42.74
				c-22.815,0.461-42.866-18.595-42.861-42.903C77.348,96.977,96.763,77.743,120.498,77.761z"/>
			<path fill="#003A78" d="M145.412,434.188H95.169c-6.521,0-11.806-5.286-11.806-11.807V208.044
				c0-6.521,5.286-11.806,11.806-11.806h50.243c6.521,0,11.807,5.286,11.807,11.806v214.339
				C157.217,428.902,151.933,434.188,145.412,434.188z"/>
			<path fill="#003A78" d="M434.652,271.522c0-44.935-36.426-81.362-81.361-81.362h-12.887c-24.583,0-46.303,12.266-59.366,31.015
				c-1.425,2.043-2.743,4.166-3.954,6.356c-0.42-0.063-0.668-0.095-0.674-0.084v-26.31c0-2.707-2.193-4.902-4.901-4.902h-62.684
				c-2.706,0-4.901,2.194-4.901,4.902v228.151c0,2.706,2.193,4.9,4.899,4.901l64.05,0.016c2.707,0.002,4.902-2.193,4.902-4.901
				V297.496c0-22.784,18.172-41.702,40.955-41.959c11.63-0.131,22.174,4.529,29.773,12.132c7.499,7.495,12.136,17.857,12.136,29.299
				v132.354c0,2.707,2.194,4.901,4.899,4.902l64.208,0.016c2.708,0.001,4.903-2.194,4.903-4.902V271.522H434.652z"/>
		</g>
	</g>
</g>
</svg>
